# xmcd
#
# Track frame offsets: 
#        150
#        11925
#        28500
#        47250
#        63375
#        78825
#        94425
#        113475
#        129900
#        156225
#        170325
#        185550
#
# Disc length: 2668 seconds
#
# Revision: 0
# Processed by: cddbd v1.5.2PL0 Copyright (c) Steve Scherf et al.
# Submitted via: ExactAudioCopy v0.99pb3
#
DISCID=8f0a6a0c
DTITLE=Zydeco Annie and Swamp Cats - La Porte
DYEAR=2010
DGENRE=Zydeco
TTITLE0=You Ain't Nothing But Fine
TTITLE1=La crève de faim
TTITLE2=Big Chief
TTITLE3=La porte en arrière
TTITLE4=Madame Cocobo
TTITLE5=Parlez-nous à boire
TTITLE6=I'm Coming Home
TTITLE7=I Saw Johnny Dance
TTITLE8=French Accordion Blue
TTITLE9=Mama Rosin
TTITLE10=Allons à Lafayette
TTITLE11=Zydeco Cha Cha
EXTD=
EXTT0=
EXTT1=
EXTT2=
EXTT3=
EXTT4=
EXTT5=
EXTT6=
EXTT7=
EXTT8=
EXTT9=
EXTT10=
EXTT11=
PLAYORDER=
